<svg width="154" height="58" viewBox="0 0 154 58" fill="none" xmlns="http://www.w3.org/2000/svg">
  <path d="M29.2909 43.8865C27.53 45.0052 25.4617 45.5445 23.3774 45.4283H18.3271V32.957H23.3825C25.4657 32.8412 27.5331 33.3776 29.296 34.4913C30.0071 35.0517 30.5817 35.7655 30.9768 36.5792C31.3719 37.3929 31.5772 38.2854 31.5772 39.1896C31.5772 40.0938 31.3719 40.9861 30.9768 41.7998C30.5817 42.6135 30.0071 43.3274 29.296 43.8877L29.2909 43.8865ZM18.3258 11.5213H22.6263C24.3737 11.4257 26.1025 11.9207 27.5333 12.9262C28.1378 13.4565 28.6221 14.1093 28.9539 14.8411C29.2856 15.5729 29.4572 16.3668 29.4572 17.1699C29.4572 17.9731 29.2856 18.7672 28.9539 19.4989C28.6221 20.2307 28.1378 20.8834 27.5333 21.4137C26.102 22.4174 24.3728 22.9091 22.6263 22.8087H18.3258V11.5213ZM38.7084 27.6148C41.5194 25.9701 43.7097 23.4475 44.9412 20.4369C46.1726 17.4263 46.3768 14.095 45.5221 10.9571C44.6674 7.81921 42.8014 5.04924 40.2122 3.07493C37.6229 1.10062 34.4544 0.0317711 31.1958 0.0332657C30.7542 0.0332657 30.3151 0.0620866 29.8861 0.101008C29.3689 0.0696198 28.8543 0.0407989 28.2844 0.0332657H0.799316V57.5003H19.3865C19.3811 57.5026 19.3761 57.5055 19.3714 57.509L22.4753 57.5003H28.2026C28.419 57.5003 28.6052 57.4852 28.814 57.4802L34.0292 57.465C37.6822 57.4645 41.2149 56.1616 43.9902 53.7913C46.7655 51.421 48.6008 48.1393 49.1652 44.5377C49.7296 40.9362 48.986 37.2518 47.0684 34.1491C45.1509 31.0464 42.1856 28.7295 38.7072 27.6161" fill="#F47A22"/>
  <path d="M77.0511 0.0309601V57.4967H98.5661L114.545 57.5081H118.697V41.9143H95.9239V0.0309601H77.0511Z" fill="#F47A22"/>
  <path d="M52.1263 0.0309601V57.5081L71.0129 57.4967V0.0309601H52.1263Z" fill="#F47A22"/>
  <path d="M124.746 0.0211716H110.839V0.0299076H101.977V35.8905H118.71V17.227C120.332 16.7818 122.027 16.6652 123.694 16.8841C125.362 17.1031 126.969 17.6531 128.42 18.5017C129.871 19.3503 131.137 20.4804 132.143 21.8252C133.15 23.17 133.876 24.7022 134.279 26.3316C134.683 27.961 134.755 29.6546 134.492 31.3123C134.229 32.9701 133.636 34.5584 132.747 35.9836C131.859 37.4089 130.694 38.6422 129.32 39.6108C127.947 40.5794 126.393 41.2637 124.75 41.6233V57.5145C132.297 57.3738 139.487 54.2831 144.774 48.9074C150.061 43.5317 153.024 36.3002 153.024 28.7679C153.024 21.2355 150.061 14.0039 144.774 8.62813C139.487 3.25241 132.297 0.161951 124.75 0.0211716" fill="#F47A22"/>
</svg>