<svg xmlns="http://www.w3.org/2000/svg" xmlns:xlink="http://www.w3.org/1999/xlink" viewBox="0 0 736.9 132"><defs><style>.cls-1{fill:#505050;}.cls-2{fill:url(#Gradiente_sem_nome_4);}.cls-3{fill:url(#Gradiente_sem_nome_4-2);}.cls-4{fill:#e57200;}</style><linearGradient id="Gradiente_sem_nome_4" y1="66" x2="156.61" y2="66" gradientUnits="userSpaceOnUse"><stop offset="0" stop-color="#ffa54c"/><stop offset="0.71" stop-color="#e57200"/></linearGradient><linearGradient id="Gradiente_sem_nome_4-2" x1="62.24" y1="74.98" x2="134.9" y2="74.98" xlink:href="#Gradiente_sem_nome_4"/></defs><g id="Camada_2" data-name="Camada 2"><g id="Logo_Principal" data-name="Logo Principal"><g id="Logo-Enkel"><g id="Tipografia"><path class="cls-1" d="M245.77,97.88v13.21h-63V26.24h61.32V39.45H198.37V61.51h40.56v13H198.37v23.4Z"/><path class="cls-1" d="M317.24,74v37.09h-15V75.94c0-11.52-5.64-17.09-15.24-17.09-10.68,0-17.88,6.54-17.88,19.51v32.73h-15V46.36H268.4v8.37c4.92-5.94,12.72-9.1,22.08-9.1C305.84,45.63,317.24,54.48,317.24,74Z"/><path class="cls-1" d="M355.22,83.33,344.06,94v17.09h-15V21.15h15v54.3l31.08-29.09h18L366.38,73.51l29.28,37.58H377.42Z"/><path class="cls-1" d="M455.84,83.57H405.56c1.8,9.46,9.6,15.52,20.76,15.52,7.2,0,12.84-2.3,17.4-7l8,9.33C446,108.3,437,111.94,426,111.94c-21.48,0-35.4-13.94-35.4-33.21s14-33.1,33.12-33.1c18.72,0,32.4,13.22,32.4,33.46C456.08,80.3,456,82.12,455.84,83.57Zm-50.4-10.06H441.8c-1.2-9.33-8.28-15.75-18.12-15.75S406.88,64.06,405.44,73.51Z"/><path class="cls-1" d="M463.83,21.15h15v89.94h-15Z"/></g><g id="Icone"><path class="cls-2" d="M154.07,2.54a793.24,793.24,0,0,0-126.92,0Q24.24,38.8,24.67,75.06l-17-16L0,67.23,25,90.84q.62,19.3,2.15,38.62a793.24,793.24,0,0,0,126.92,0A793.24,793.24,0,0,0,154.07,2.54ZM143.5,118.89a987.62,987.62,0,0,1-105.79,0q-.7-13.38-1.06-26.76l63.74-51.91L128.3,65l7.46-8.41L100.7,25.47,36.38,77.85Q36,45.48,37.71,13.1a992.86,992.86,0,0,1,105.79,0A987.62,987.62,0,0,1,143.5,118.89Z"/><polygon class="cls-3" points="62.24 86.76 69.54 95.3 99.62 69.57 127.44 94.25 134.9 85.84 99.75 54.66 62.24 86.76"/></g><path class="cls-4" d="M543,89.78a15.71,15.71,0,0,1-9.27,2.41h-7.92V72.68h7.93a15.75,15.75,0,0,1,9.26,2.4,9.34,9.34,0,0,1,0,14.7ZM525.77,39.15h6.74a12.23,12.23,0,0,1,7.69,2.19,8.81,8.81,0,0,1,0,13.28,12.16,12.16,0,0,1-7.69,2.18h-6.74Zm32,25.17a23.17,23.17,0,0,0-11.78-43.15c-.69,0-1.38,0-2.05.11s-1.62-.09-2.51-.11H498.3v89.9h29.13l0,0,4.86,0h9c.34,0,.63,0,1,0l8.17,0a23.91,23.91,0,0,0,7.34-46.7"/><path class="cls-4" d="M617.82,21.16v89.9h33.72l25,0h6.51V86.69H647.4V21.16Z"/><path class="cls-4" d="M578.75,21.16v89.92l29.6,0V21.16Z"/><path class="cls-4" d="M692.57,21.15H656.88v56.1h26.23V48.06a20,20,0,0,1,7.82-.53,19.66,19.66,0,0,1,1.65,38.7v24.86a45,45,0,0,0,0-89.94"/></g></g></g></svg>