<svg width="371" height="60" viewBox="0 0 371 60" fill="none" xmlns="http://www.w3.org/2000/svg">
<g clip-path="url(#clip0_7_549)">
<path d="M0 0.23114V14.8721H43.6597V58.8246H58.2113V0.25573H58.182V0.23114H0ZM21.8201 22.2098H0.014664V36.8459H21.8201V58.8246H36.3815V22.2098H21.8201ZM0.00488801 44.1836H14.5565V58.8295H0.00488801V44.1836Z" fill="#FFC43D"/>
<path d="M321.475 1.13607V58.6426H370.976V44.2672H335.586V1.13607H321.475ZM190.408 1.17049H204.554V58.6475H190.408V1.17049ZM76.3655 1.17049V15.5164H94.2312V58.6426H108.665V15.5164H126.492V1.17049H76.3655V1.17049ZM237.504 22.4902C232.361 21.9738 226.789 21.4918 226.789 17.2279C226.789 14.0803 231.662 12.6738 235.773 12.6738C240.5 12.6738 244.459 13.6475 247.871 15.659L248.052 15.7672L257.3 6.62459L257.051 6.4377C251.112 1.98197 244.547 0 235.768 0C223.719 0 211.524 5.91639 211.524 17.2328C211.524 28.1705 219.022 34.0377 235.118 35.6951C242.064 36.4082 245.54 38.0311 245.54 41.1197C245.54 44.3213 241.355 46.3869 235.68 46.3869C229.179 46.3869 223.871 44.5328 219.442 40.7213L219.252 40.5541L209.74 49.9672L209.94 50.1541C219.11 58.9623 230.939 59.9115 235.602 59.9115C253.155 59.9115 261.01 50.5967 261.01 41.3656C261.015 27.8311 248.233 23.6311 237.504 22.4902V22.4902ZM300.246 1.15082V35.341C300.246 41.0311 295.661 45.6443 290.006 45.6443H289.023C283.368 45.6443 278.783 41.0311 278.783 35.341V1.15082L264.657 1.19508V36.1082C264.657 49.259 275.249 59.9164 288.319 59.9164H290.715C303.785 59.9164 314.382 49.259 314.382 36.1082V1.19508L300.246 1.15082V1.15082ZM147.638 15.541H161.779C163.673 15.541 165.489 16.298 166.828 17.6455C168.168 18.993 168.92 20.8206 168.92 22.7262C168.92 24.6319 168.168 26.4595 166.828 27.807C165.489 29.1545 163.673 29.9115 161.779 29.9115H147.638V15.541ZM183.208 22.7213C183.208 10.8344 173.598 1.16557 161.783 1.16557H133.355V58.6475H147.662V44.282H158.513L168.739 58.6475H183.12V57.241L172.024 41.6607C178.676 37.9967 183.208 30.8803 183.208 22.7213" fill="#123564"/>
<path d="M0.00488281 58.8295H14.5516V44.1836L0.00488281 58.8295ZM21.8201 36.8459V58.8246H36.3815V22.2098L21.8201 36.8459ZM43.6597 14.8721V58.8246H58.2113V0.25573H58.182V0.23114L43.6597 14.8721V14.8721Z" fill="#C58F18"/>
</g>
<defs>
<clipPath id="clip0_7_549">
<rect width="371" height="60" fill="white"/>
</clipPath>
</defs>
</svg>
