<svg width="759" height="122" fill="none" xmlns="http://www.w3.org/2000/svg"><g clip-path="url(#a)"><path d="M0 .47v29.77h89.32v89.37h29.77V.52h-.06V.47H0Zm44.64 44.69H.03v29.76h44.61v44.69h29.79V45.16H44.64ZM.01 89.84h29.77v29.78H.01V89.84Z" fill="#FFC43D"/><path d="M657.68 2.31v116.93h101.27V90.01h-72.4V2.31h-28.87Zm-268.14.07h28.94v116.87h-28.94V2.38Zm-233.31 0v29.17h36.55v87.69h29.53V31.55h36.47V2.38H156.23Zm329.66 43.35c-10.52-1.05-21.92-2.03-21.92-10.7 0-6.4 9.97-9.26 18.38-9.26 9.67 0 17.77 1.98 24.75 6.07l.37.22 18.92-18.59-.51-.38C513.73 4.03 500.3 0 482.34 0c-24.65 0-49.6 12.03-49.6 35.04 0 22.24 15.34 34.17 48.27 37.54 14.21 1.45 21.32 4.75 21.32 11.03 0 6.51-8.56 10.71-20.17 10.71-13.3 0-24.16-3.77-33.22-11.52l-.39-.34-19.46 19.14.41.38c18.76 17.91 42.96 19.84 52.5 19.84 35.91 0 51.98-18.94 51.98-37.71.01-27.52-26.14-36.06-48.09-38.38ZM614.25 2.34v69.52c0 11.57-9.38 20.95-20.95 20.95h-2.01c-11.57 0-20.95-9.38-20.95-20.95V2.34l-28.9.09v70.99c0 26.74 21.67 48.41 48.41 48.41h4.9c26.74 0 48.42-21.67 48.42-48.41V2.43l-28.92-.09ZM302.04 31.6h28.93a14.61 14.61 0 1 1 0 29.22h-28.93V31.6Zm72.77 14.6c0-24.17-19.66-43.83-43.83-43.83h-58.16v116.88h29.27V90.04h22.2l20.92 29.21h29.42v-2.86l-22.7-31.68c13.61-7.45 22.88-21.92 22.88-38.51" fill="#fff"/><path d="M.01 119.62h29.76V89.84L.01 119.62Zm44.63-44.7v44.69h29.79V45.16L44.64 74.92Zm44.68-44.68v89.37h29.77V.52h-.06V.47L89.32 30.24Z" fill="#C58F18"/></g><defs><clipPath id="a"><path fill="#fff" d="M0 0h758.95v121.83H0z"/></clipPath></defs></svg>