<svg width="256" height="60" viewBox="0 0 256 60" fill="none" xmlns="http://www.w3.org/2000/svg">
<g clip-path="url(#clip0_7_544)">
<path d="M96.95 50.64V59.84H59.6V0.24H96.95V9.44H68.48V22.88H93.25V32.08H68.48V50.64H96.95ZM135.28 59.76L120.23 37.2H110.74V60H101.79V0L128.41 0.08C130.88 0.08 133.19 0.57 135.35 1.56C137.51 2.55 139.4 3.88 141.02 5.56C142.64 7.24 143.91 9.23 144.84 11.52C145.77 13.81 146.23 16.24 146.23 18.8C146.23 21.15 145.84 23.35 145.07 25.4C144.3 27.45 143.22 29.29 141.83 30.92C140.454 32.5354 138.81 33.9019 136.97 34.96C135.114 36.0299 133.071 36.7358 130.95 37.04L146.15 59.76H135.28ZM128.41 28C129.64 28 130.79 27.76 131.84 27.28C132.888 26.8009 133.833 26.1215 134.62 25.28C135.42 24.43 136.05 23.45 136.51 22.36C136.97 21.27 137.2 20.08 137.2 18.8C137.2 17.52 136.97 16.31 136.51 15.16C136.068 14.0437 135.413 13.0246 134.58 12.16C133.77 11.3169 132.814 10.6259 131.76 10.12C130.71 9.61 129.56 9.36 128.33 9.36H110.74V27.92L128.41 28ZM255.38 0.16V7.92L223.43 50.48H255.38V59.76H210.7V52.24L242.72 9.44H210.86V0.16H255.38ZM41.9 30.84H32.02L39.51 13L44.83 0.04H54.71L41.9 30.84ZM27.32 42.2H37.2L29.79 59.88H24.85L0 0.04H9.8L19.06 22.36L27.32 42.2ZM181.11 0.28L205.88 59.96H196.01L190.61 47.08L178.57 17.8L170.23 37.72L160.98 59.96H151.25L176.1 0.28H181.11Z" fill="#E66D2D"/>
</g>
<defs>
<clipPath id="clip0_7_544">
<rect width="256" height="60" fill="white"/>
</clipPath>
</defs>
</svg>
