<svg width="167" height="93" viewBox="0 0 167 93" fill="none" xmlns="http://www.w3.org/2000/svg">
<path fill-rule="evenodd" clip-rule="evenodd" d="M29.2365 57.5573C30.9436 53.9495 32.3759 50.2192 33.5213 46.3977C34.4302 43.5059 37.8061 41.5992 41.8312 41.5992C44.8423 41.5992 47.2158 44.0554 46.029 45.944C44.8423 47.8326 43.749 49.6694 42.3804 52.0195C37.9099 59.9049 37.3633 60.9066 30.4271 74.9607L27.6887 80.412C26.6271 82.3759 25.6231 84.37 24.6777 86.3919C23.3091 89.1181 19.4839 90.7521 15.4588 90.7521C11.5336 90.7521 8.24991 88.5701 7.88505 85.6628C7.61238 83.2998 7.24754 81.0298 6.88009 78.6823C6.51523 76.2262 6.05687 73.5931 5.60242 71.0672C5.14797 68.5413 4.77921 66.0838 4.32476 63.6303L3.95989 61.5426C3.41325 58.1946 3.23152 57.2885 2.14214 52.1062C2.05125 51.6343 0.773583 45.9413 0.864473 46.0305C0.0412692 43.6829 2.87446 41.5953 5.9764 41.6858H8.16425C11.8154 41.5953 14.5538 43.864 14.6447 46.5774C14.7356 48.3871 14.9174 51.028 15.3731 54.8297C16.1089 62.866 17.2691 70.8582 18.849 78.7729L29.2365 57.5573V57.5573ZM59.4418 68.6267L62.0893 53.9379C62.6359 50.9401 63.0903 48.7581 63.4578 47.1229C63.4677 46.6387 63.5287 46.1569 63.6396 45.6854C63.8214 43.3223 61.1726 41.0524 58.0732 41.6871C57.0683 41.868 56.1542 42.0503 54.8765 42.2313C54.2468 42.2317 53.6245 42.3661 53.0511 42.6253C52.4778 42.8846 51.9666 43.2627 51.5519 43.7345C51.1373 44.2063 50.8287 44.7609 50.6467 45.3611C50.4648 45.9613 50.4137 46.5932 50.4969 47.2146C50.5878 50.4838 49.7659 56.3772 47.5768 68.3526L46.0251 77.2397C45.3876 80.9497 44.7475 83.495 44.2917 85.4017C44.2704 85.5546 44.24 85.7062 44.2008 85.8555C44.1947 86.4922 44.3194 87.1235 44.5674 87.7104C44.8154 88.2974 45.1813 88.8276 45.6428 89.2685C46.1042 89.7095 46.6513 90.0518 47.2505 90.2745C47.8497 90.4972 48.4883 90.5955 49.127 90.5634H49.8555C53.3249 90.5634 56.6073 88.7536 56.7917 86.1282C57.0709 83.0426 57.7993 77.7012 59.4418 68.6292V68.6267ZM85.9985 40.3272C86.466 37.2509 87.167 34.2143 88.0954 31.2435C88.733 28.8805 85.3571 27.1547 82.1642 27.792C78.2391 28.6969 75.5047 31.2436 75.2281 34.1508C75.0594 36.1623 74.7846 38.1634 74.4049 40.1462C73.4014 40.0725 72.405 40.3631 71.5999 40.964C70.7948 41.565 70.2356 42.4358 70.0253 43.4154C69.7526 44.8684 71.212 46.1417 73.0363 46.5037L67.2869 76.6658C66.8413 78.7288 66.5673 80.8248 66.4676 82.9326C66.5797 84.9227 67.3127 86.8284 68.5646 88.3839C69.9331 90.2906 73.8582 92.0319 79.9712 92.0319C80.7635 92.0469 81.556 92.0166 82.3448 91.9413C85.6285 91.4876 88.0033 89.475 88.5486 87.2025C88.8213 85.6577 86.4478 84.1142 83.986 84.4762C83.3609 84.643 82.7179 84.7341 82.0709 84.7476C80.0648 84.7476 78.6015 83.3851 78.6015 80.0241C78.8344 76.1646 79.4145 72.3337 80.3348 68.5774C80.6075 67.2149 81.0658 65.3044 81.4307 63.2167C81.8864 60.7606 82.4357 58.0369 82.8902 55.5899C83.4368 52.8636 83.986 50.1386 84.4417 47.963C84.5326 47.4188 84.6234 47.1436 84.7143 46.6912C85.992 46.6912 87.4529 46.6911 89.185 46.7816C92.196 46.7816 94.8435 45.5095 95.3888 43.5123C95.7537 41.7026 93.571 39.8773 90.8261 40.1514C89.9172 40.2419 88.8161 40.242 87.6333 40.242C87.1775 40.242 86.7244 40.3324 86.2648 40.3324H85.9947L85.9985 40.3272ZM112.644 40.3272H112.916C113.372 40.3272 113.825 40.2367 114.285 40.2367C115.472 40.2367 116.567 40.2367 117.478 40.1462C120.216 39.8747 122.404 41.6911 122.04 43.5073C121.494 45.5045 118.848 46.7764 115.837 46.7764C114.103 46.6859 112.644 46.686 111.366 46.686C111.275 47.1397 111.184 47.4137 111.093 47.958C110.635 50.1361 110.088 52.8623 109.542 55.5847C109.086 58.0407 108.537 60.7645 108.082 63.2115C107.717 65.2992 107.263 67.2099 106.986 68.5724C106.066 72.3287 105.486 76.1596 105.253 80.019C105.253 83.38 106.712 84.7424 108.72 84.7424C109.367 84.7289 110.01 84.6378 110.635 84.471C113.102 84.1077 115.473 85.6525 115.198 87.1973C114.651 89.4698 112.277 91.4825 108.994 91.9363C108.205 92.0116 107.413 92.0418 106.62 92.0267C100.507 92.0267 96.582 90.2854 95.2135 88.3787C93.9611 86.8235 93.228 84.9178 93.1165 82.9276C93.2161 80.8195 93.4915 78.7233 93.9398 76.6606L99.6892 46.4985C97.8714 46.1352 96.4055 44.8632 96.6782 43.4102C96.8884 42.4306 97.4477 41.5598 98.2527 40.9588C99.0578 40.3579 100.054 40.0675 101.058 40.1411C101.434 38.1578 101.709 36.1567 101.881 34.1456C102.154 31.2384 104.892 28.6944 108.817 27.787C112.01 27.1523 115.389 28.8779 114.748 31.2383C113.818 34.2089 113.116 37.2456 112.648 40.3221L112.644 40.3272ZM153.983 47.5947C152.113 46.888 150.139 46.4889 148.14 46.4131C134.269 46.4131 130.62 65.8564 130.62 73.3009C130.62 79.4774 132.354 83.9293 136.915 83.9293C139.563 83.9293 142.937 82.4764 146.039 77.9339C148.506 74.5729 150.055 69.3027 151.606 60.2242L153.979 47.596L153.983 47.5947ZM160.919 41.6898L159.46 42.234C156.364 40.9615 153.045 40.3133 149.696 40.3272C143.953 40.2199 138.337 42.0096 133.725 45.4165C120.403 55.9544 117.937 72.4904 117.937 76.6696C117.937 87.0253 125.419 91.9492 132.999 91.9492C140.117 91.9492 144.952 86.3907 148.694 81.3052C148.341 83.1363 148.098 84.9869 147.966 86.847C147.784 89.1195 150.521 91.0261 153.716 90.9357C156.817 90.8452 159.829 89.2099 159.829 86.9374C160.142 81.4481 160.813 75.985 161.838 70.5824L163.481 61.6798C165.033 53.3213 166.036 48.6883 166.674 45.6906C167.126 43.2345 164.207 40.6892 160.922 41.6833L160.919 41.6898Z" fill="#0065AE"/>
<path fill-rule="evenodd" clip-rule="evenodd" d="M39.4411 23.2015C39.3188 21.5031 39.5695 19.7986 40.176 18.2066C40.085 17.5311 39.7793 16.9022 39.3035 16.4122C38.9444 18.6655 38.9911 20.9645 39.4411 23.2015V23.2015ZM39.9618 25.2426V25.218C39.9269 25.1082 39.8935 24.9979 39.8618 24.8871C39.8929 25.0008 39.9241 25.1237 39.9618 25.2426ZM39.297 16.411C39.2988 16.4038 39.2988 16.3963 39.297 16.389V16.411ZM39.4814 23.4174C39.4661 23.3458 39.4526 23.2738 39.4411 23.2015C39.4397 23.2161 39.4397 23.2307 39.4411 23.2454C39.4541 23.3009 39.4697 23.3579 39.4814 23.4174V23.4174ZM45.4788 28.919C45.374 28.995 45.3031 29.1084 45.2808 29.2355C45.2585 29.3626 45.2867 29.4934 45.3593 29.6002C45.3944 29.6528 45.4396 29.698 45.4923 29.7331C45.545 29.7681 45.6043 29.7922 45.6665 29.8042C45.7287 29.8163 45.7927 29.816 45.8548 29.8031C45.9169 29.7903 45.9758 29.7652 46.028 29.7294C46.1328 29.6534 46.2037 29.54 46.226 29.4129C46.2483 29.2858 46.2201 29.155 46.1475 29.0482C46.1124 28.9956 46.0672 28.9505 46.0145 28.9155C45.9618 28.8805 45.9025 28.8562 45.8403 28.8442C45.7781 28.8322 45.7141 28.8326 45.652 28.8454C45.5899 28.8583 45.531 28.8833 45.4788 28.919V28.919ZM47.7238 33.0568C47.6181 33.1319 47.5461 33.2454 47.5233 33.3727C47.5005 33.5 47.5287 33.6312 47.6017 33.7381C47.6366 33.7909 47.6818 33.836 47.7345 33.8712C47.7873 33.9063 47.8464 33.9306 47.9087 33.9426C47.971 33.9547 48.0351 33.9543 48.0972 33.9414C48.1593 33.9284 48.2182 33.9033 48.2704 33.8674C48.3753 33.7914 48.4461 33.6775 48.4677 33.5502C48.4894 33.4228 48.46 33.2922 48.386 33.1862C48.3517 33.1336 48.3071 33.0885 48.255 33.0534C48.2028 33.0184 48.1441 32.994 48.0824 32.982C48.0206 32.9699 47.957 32.9704 47.8954 32.9832C47.8338 32.9961 47.7754 33.021 47.7238 33.0568V33.0568ZM45.5735 31.4359C45.4896 31.4963 45.4327 31.587 45.415 31.6886C45.3973 31.7903 45.4201 31.895 45.4788 31.9801C45.5061 32.0227 45.5418 32.0594 45.5836 32.088C45.6254 32.1167 45.6726 32.1368 45.7223 32.1471C45.772 32.1573 45.8234 32.1575 45.8732 32.1477C45.923 32.1379 45.9704 32.1182 46.0124 32.0899C46.0966 32.029 46.1536 31.9378 46.1712 31.8357C46.1889 31.7336 46.166 31.6287 46.1072 31.5432C46.0797 31.5008 46.0439 31.4643 46.002 31.4359C45.96 31.4074 45.9128 31.3876 45.8631 31.3776C45.8134 31.3676 45.7621 31.3676 45.7124 31.3776C45.6627 31.3876 45.6155 31.4074 45.5735 31.4359V31.4359ZM45.5943 22.0923C45.6312 22.1489 45.6791 22.1975 45.7351 22.2355C45.7911 22.2734 45.8541 22.2999 45.9205 22.3132C45.9869 22.3266 46.0552 22.3265 46.1216 22.3132C46.188 22.3 46.2511 22.2736 46.3072 22.2358C46.4192 22.1548 46.4953 22.0336 46.5196 21.8979C46.5438 21.7622 46.5142 21.6225 46.4371 21.508C46.4004 21.4512 46.3527 21.4022 46.2967 21.3641C46.2407 21.326 46.1776 21.2994 46.1111 21.286C46.0446 21.2726 45.9761 21.2727 45.9096 21.2861C45.8432 21.2996 45.7801 21.3263 45.7242 21.3646C45.6119 21.4454 45.5356 21.5664 45.5113 21.7023C45.4871 21.8381 45.5168 21.978 45.5943 22.0923V22.0923ZM47.5472 28.4459C47.5107 28.3889 47.463 28.3398 47.4071 28.3015C47.3511 28.2633 47.2879 28.2366 47.2214 28.2232C47.1548 28.2099 47.0863 28.21 47.0198 28.2236C46.9533 28.2371 46.8902 28.2639 46.8343 28.3023C46.7223 28.3833 46.6462 28.5044 46.6219 28.6402C46.5977 28.7759 46.6274 28.9156 46.7045 29.0301C46.7411 29.0869 46.7888 29.1358 46.8448 29.174C46.9008 29.2121 46.9639 29.2387 47.0304 29.2521C47.0969 29.2655 47.1654 29.2654 47.2318 29.2519C47.2983 29.2384 47.3614 29.2119 47.4174 29.1737C47.5311 29.0939 47.6085 28.9726 47.6328 28.8363C47.6571 28.7 47.6263 28.5597 47.5472 28.4459V28.4459ZM71.1058 33.1177C70.3398 33.5953 69.5939 34.1041 68.87 34.6429C68.8368 34.8199 68.8506 35.0025 68.9101 35.1725C68.9695 35.3426 69.0725 35.4942 69.2088 35.6125C70.1174 35.0192 70.9743 34.3511 71.7707 33.6152C71.7016 33.4901 71.6066 33.381 71.492 33.2952C71.3774 33.2094 71.2458 33.149 71.1058 33.1177V33.1177ZM74.8518 26.6839C75.3272 26.3543 75.8848 26.1619 76.4631 26.128C76.5545 25.5583 76.4256 24.9754 76.1022 24.4967C75.9469 24.2551 75.7444 24.0472 75.5067 23.8851C75.2691 23.723 75.001 23.6101 74.7187 23.5532C74.4363 23.4963 74.1455 23.4964 73.8632 23.5537C73.5809 23.611 73.3131 23.7241 73.0756 23.8865C72.5987 24.2293 72.2751 24.744 72.1737 25.3209C72.0724 25.8977 72.2012 26.4911 72.5328 26.9748C72.8324 27.4242 73.2869 27.7489 73.8105 27.8875C74.053 27.4072 74.4106 26.9938 74.8518 26.6839V26.6839Z" fill="#0065AE"/>
<path fill-rule="evenodd" clip-rule="evenodd" d="M74.1711 30.9448C74.301 30.7664 74.4308 30.5854 74.5606 30.4006C74.3552 29.9026 74.324 29.3503 74.4722 28.8325C74.6203 28.3148 74.9392 27.8618 75.3774 27.5463C75.669 27.3387 76.0075 27.2054 76.3629 27.1585C76.4538 26.9516 76.5382 26.7462 76.6225 26.5367C76.0574 26.5422 75.507 26.7175 75.0436 27.0396C74.4428 27.471 74.022 28.1071 73.8612 28.827C73.7003 29.5469 73.8106 30.3005 74.1711 30.9448V30.9448Z" fill="#0065AE"/>
<path fill-rule="evenodd" clip-rule="evenodd" d="M74.862 29.9537C75.3413 29.2166 75.7694 28.4478 76.1435 27.6527C75.9581 27.7078 75.7828 27.792 75.6241 27.9022C75.3051 28.1286 75.062 28.4453 74.9261 28.8111C74.7901 29.1769 74.7679 29.5751 74.862 29.9537V29.9537ZM57.0956 22.8866C56.5221 23.3016 56.1335 23.9227 56.0123 24.6182C55.8911 25.3137 56.0468 26.0289 56.4464 26.612C56.634 26.9027 56.8782 27.1531 57.1647 27.3483C57.4511 27.5434 57.774 27.6793 58.1141 27.7482C58.4542 27.817 58.8047 27.8173 59.145 27.7489C59.4852 27.6806 59.8082 27.545 60.0949 27.3502C60.6677 26.9352 61.0558 26.3145 61.1769 25.6196C61.2981 24.9247 61.1429 24.2102 60.7442 23.6273C60.5568 23.3363 60.3127 23.0857 60.0263 22.8903C59.74 22.6949 59.4171 22.5586 59.077 22.4895C58.7368 22.4205 58.3863 22.4201 58.0459 22.4883C57.7056 22.5565 57.3824 22.6919 57.0956 22.8866V22.8866ZM74.2245 14.8591C73.8728 14.3046 73.6861 13.6622 73.6861 13.0065C73.6861 12.3508 73.8728 11.7086 74.2245 11.1541C74.4548 10.7957 74.7533 10.4857 75.1034 10.2416C74.7091 9.96348 74.257 9.77733 73.7806 9.69702C73.3042 9.61671 72.8157 9.64428 72.3515 9.77765C71.8872 9.91103 71.4591 10.1467 71.0989 10.4674C70.7386 10.788 70.4555 11.1854 70.2707 11.6299C69.0475 11.1905 68.0397 10.3015 67.4544 9.14536C68.3932 8.83641 69.6838 9.74515 69.6838 9.74515C69.114 8.86647 68.3411 8.13647 67.4297 7.61614C66.6118 7.7117 65.7829 7.60184 65.0186 7.29675C66.2109 8.20453 67.0498 9.4962 67.3921 10.9512C68.3036 11.3321 69.2658 11.5795 70.2487 11.6854C70.0402 12.1969 69.9567 12.7503 70.0047 13.3002C70.0528 13.85 70.2312 14.3807 70.5252 14.8486C70.5521 14.8271 70.5803 14.8072 70.6096 14.7892C71.15 14.4393 71.7833 14.2588 72.4278 14.2713C73.0723 14.2837 73.6982 14.4886 74.2245 14.8591V14.8591Z" fill="#0065AE"/>
<path fill-rule="evenodd" clip-rule="evenodd" d="M76.0135 11.1617C76.528 11.9274 76.7175 12.8648 76.5407 13.7691C76.4444 14.2488 76.245 14.7021 75.9563 15.0979C75.7767 14.8614 75.5127 14.7026 75.2188 14.6545C74.9249 14.6064 74.6238 14.6727 74.3775 14.8395C74.3459 14.8627 74.3164 14.8886 74.2892 14.9169C74.2672 14.9014 74.2489 14.8769 74.223 14.8601C74.2386 14.8847 74.2606 14.9041 74.2736 14.9261C74.08 15.1019 73.9485 15.3352 73.8987 15.5914C73.8489 15.8475 73.8833 16.1129 73.997 16.348C73.975 16.3635 73.9503 16.3699 73.9282 16.3854L74.0061 16.366C74.0288 16.4142 74.0539 16.4613 74.0814 16.5069C74.166 16.6372 74.2758 16.7493 74.4045 16.8367C74.5331 16.9241 74.6782 16.9851 74.8308 17.016C74.9835 17.0468 75.1408 17.0469 75.2935 17.0163C75.4462 16.9857 75.5912 16.925 75.72 16.8378C75.8758 16.727 76.0028 16.5808 76.0903 16.4113C76.1777 16.2417 76.223 16.0538 76.2226 15.8632C76.722 15.9348 77.1987 16.1176 77.6171 16.3983C77.6573 16.3983 77.7014 16.3829 77.7469 16.3739C77.59 15.3913 77.3569 14.4223 77.0496 13.4756C76.6572 12.2681 76.1471 11.1018 75.5266 9.99316C75.3806 10.0652 75.24 10.1477 75.106 10.2401C75.4646 10.4872 75.7725 10.7998 76.0135 11.1617V11.1617Z" fill="#0065AE"/>
<path fill-rule="evenodd" clip-rule="evenodd" d="M77.7444 16.3749C77.7014 16.3848 77.6582 16.3929 77.6146 16.3994C77.6613 16.4343 77.7119 16.4679 77.7586 16.5054L77.7444 16.3749ZM77.7962 19.8935C77.3542 19.7945 76.9367 19.6082 76.5683 19.3458C76.1999 19.0833 75.888 18.75 75.6512 18.3655C75.5713 18.8063 75.4021 19.2264 75.1539 19.6C74.9056 19.9736 74.5836 20.2929 74.2075 20.5386C73.8536 20.7703 73.4559 20.9278 73.0388 21.0014C73.3851 21.5702 73.895 22.0224 74.5026 22.299C75.1101 22.5756 75.7873 22.6639 76.4459 22.5526C76.9458 22.4623 77.4169 22.2555 77.8209 21.949C77.9082 21.2799 77.9616 20.6068 77.9807 19.9323L77.7962 19.8935ZM73.9256 16.3879C73.2858 16.4972 72.6278 16.418 72.0326 16.1598C71.4374 15.9017 70.931 15.4759 70.5758 14.9349C70.5563 14.9064 70.5407 14.8727 70.5186 14.8443C69.8068 15.3548 69.3179 16.117 69.152 16.9747C68.9862 17.8324 69.156 18.7208 69.6266 19.458C69.9733 20.026 70.4836 20.4771 71.0912 20.7526C71.6988 21.028 72.3756 21.1151 73.0336 21.0027C72.8026 20.6316 72.642 20.2215 72.5597 19.7927C72.4349 19.1545 72.4974 18.4941 72.7397 17.8903C72.9819 17.2864 73.3936 16.7649 73.9256 16.3879V16.3879ZM47.3286 16.4344C47.2239 16.5104 47.1529 16.6239 47.1307 16.751C47.1084 16.878 47.1365 17.0088 47.2092 17.1156C47.2441 17.1684 47.2893 17.2137 47.342 17.2488C47.3947 17.2839 47.4539 17.3082 47.5162 17.3203C47.5785 17.3323 47.6426 17.3318 47.7047 17.3189C47.7668 17.3059 47.8257 17.2808 47.8779 17.2449C47.9826 17.1689 48.0536 17.0554 48.0759 16.9283C48.0982 16.8012 48.07 16.6705 47.9973 16.5636C47.9628 16.5105 47.9179 16.4648 47.8651 16.4294C47.8124 16.3939 47.7531 16.3693 47.6906 16.3572C47.6282 16.3452 47.564 16.3459 47.5018 16.3591C47.4396 16.3724 47.3807 16.398 47.3286 16.4344ZM46.682 18.1407C46.6546 18.0981 46.6189 18.0614 46.5769 18.0329C46.535 18.0044 46.4877 17.9846 46.4379 17.9747C46.388 17.9648 46.3367 17.965 46.287 17.9753C46.2372 17.9856 46.1901 18.0058 46.1484 18.0346C46.1059 18.0639 46.0699 18.1013 46.0421 18.1446C46.0143 18.1879 45.9954 18.2365 45.9866 18.2871C45.9778 18.3378 45.9792 18.3896 45.9907 18.4397C46.0022 18.4898 46.0235 18.5371 46.0536 18.5789C46.081 18.6215 46.1168 18.6581 46.1587 18.6867C46.2007 18.7152 46.248 18.735 46.2978 18.7449C46.3476 18.7548 46.3989 18.7546 46.4486 18.7443C46.4984 18.734 46.5455 18.7138 46.5872 18.6849C46.6704 18.6238 46.7267 18.533 46.7444 18.4317C46.7621 18.3303 46.7397 18.2261 46.682 18.1407V18.1407ZM67.9139 14.0428C67.8018 14.1231 67.7255 14.2439 67.7013 14.3792C67.677 14.5146 67.7068 14.6541 67.7841 14.7681C67.8206 14.8251 67.8682 14.8742 67.9242 14.9124C67.9802 14.9507 68.0434 14.9772 68.1099 14.9906C68.1764 15.004 68.245 15.004 68.3115 14.9904C68.378 14.9768 68.4411 14.9499 68.497 14.9115C68.6093 14.8307 68.6856 14.7096 68.7098 14.5738C68.7341 14.438 68.7043 14.2981 68.6268 14.1837C68.5896 14.1275 68.5416 14.0793 68.4855 14.0417C68.4294 14.0041 68.3663 13.978 68.2999 13.9649C68.2336 13.9518 68.1654 13.952 68.0991 13.9653C68.0329 13.9787 67.9699 14.005 67.9139 14.0428ZM54.2181 10.1403C54.1058 10.2211 54.0295 10.3422 54.0053 10.478C53.981 10.6138 54.0108 10.7537 54.0883 10.8681C54.1249 10.9249 54.1726 10.9739 54.2286 11.012C54.2846 11.0501 54.3477 11.0767 54.4142 11.0901C54.4807 11.1035 54.5492 11.1034 54.6156 11.09C54.6821 11.0765 54.7452 11.0497 54.8011 11.0115C54.9131 10.9305 54.9893 10.8094 55.0135 10.6737C55.0377 10.538 55.0081 10.3982 54.931 10.2838C54.8939 10.2275 54.8459 10.179 54.7899 10.1413C54.7339 10.1035 54.6709 10.0773 54.6046 10.0639C54.5383 10.0506 54.47 10.0505 54.4037 10.0636C54.3373 10.0767 54.2743 10.1028 54.2181 10.1403V10.1403ZM46.3198 15.7958C46.4321 15.715 46.5084 15.5938 46.5326 15.458C46.5569 15.3221 46.5271 15.1824 46.4496 15.068C46.4125 15.0117 46.3645 14.9633 46.3085 14.9255C46.2525 14.8878 46.1895 14.8616 46.1232 14.8482C46.0569 14.8349 45.9887 14.8347 45.9223 14.8478C45.856 14.8609 45.793 14.8869 45.7368 14.9244C45.6253 15.0058 45.5496 15.1269 45.5254 15.2624C45.5012 15.398 45.5304 15.5376 45.6069 15.6522C45.6438 15.7088 45.6917 15.7576 45.7477 15.7955C45.8037 15.8334 45.8666 15.8598 45.933 15.8731C45.9994 15.8865 46.0678 15.8866 46.1343 15.8733C46.2007 15.86 46.2637 15.8337 46.3198 15.7958V15.7958ZM48.3557 15.1301C48.2436 15.2104 48.1673 15.3311 48.1431 15.4665C48.1188 15.6019 48.1485 15.7413 48.2259 15.8553C48.2625 15.9121 48.3102 15.9611 48.3662 15.9992C48.4221 16.0373 48.4853 16.0638 48.5518 16.0772C48.6183 16.0905 48.6868 16.0905 48.7532 16.077C48.8197 16.0635 48.8828 16.0369 48.9387 15.9987C49.0509 15.9184 49.1271 15.7977 49.1514 15.6623C49.1756 15.5269 49.1459 15.3874 49.0686 15.2735C49.0319 15.2166 48.9842 15.1677 48.9282 15.1296C48.8722 15.0914 48.8092 15.0649 48.7427 15.0515C48.6762 15.0381 48.6076 15.0381 48.5411 15.0516C48.4747 15.0651 48.4116 15.0918 48.3557 15.1301ZM51.4382 13.5025C51.3544 13.563 51.2973 13.6537 51.2791 13.7552C51.261 13.8567 51.2831 13.9612 51.3408 14.0468C51.3683 14.0892 51.404 14.1258 51.4458 14.1544C51.4876 14.183 51.5348 14.203 51.5845 14.2132C51.6342 14.2235 51.6854 14.2237 51.7352 14.214C51.7849 14.2043 51.8323 14.1847 51.8745 14.1566C51.9582 14.0954 52.0151 14.0045 52.0332 13.9027C52.0513 13.8009 52.0294 13.6959 51.9719 13.6098C51.9447 13.567 51.9091 13.5302 51.8672 13.5014C51.8253 13.4727 51.7779 13.4526 51.728 13.4426C51.6781 13.4325 51.6268 13.4327 51.577 13.443C51.5271 13.4533 51.4799 13.4736 51.4382 13.5025V13.5025ZM55.9996 11.6927C55.9157 11.7532 55.8587 11.8439 55.8405 11.9454C55.8224 12.0469 55.8445 12.1514 55.9022 12.237C55.9296 12.2796 55.9653 12.3162 56.0073 12.3448C56.0492 12.3733 56.0965 12.3931 56.1464 12.403C56.1962 12.4129 56.2475 12.4127 56.2972 12.4024C56.347 12.3921 56.3941 12.3719 56.4359 12.343C56.4783 12.3137 56.5144 12.2764 56.5421 12.233C56.5699 12.1897 56.5888 12.1413 56.5976 12.0907C56.6064 12.0401 56.6051 11.9881 56.5936 11.938C56.5821 11.8879 56.5607 11.8406 56.5306 11.7988C56.5036 11.7561 56.4681 11.7194 56.4264 11.6908C56.3847 11.6623 56.3376 11.6424 56.2879 11.6325C56.2382 11.6225 56.1871 11.6227 56.1376 11.6331C56.088 11.6435 56.041 11.6638 55.9996 11.6927V11.6927ZM47.8117 3.24897L47.8493 3.26838L47.8117 3.24897ZM48.8764 2.85085C48.9114 2.73838 48.9491 2.62598 48.9894 2.52515C48.9582 2.54066 48.9296 2.56007 48.8985 2.57817C48.892 2.66737 48.8855 2.75777 48.8764 2.85085V2.85085ZM47.6961 3.66398C47.58 3.63474 47.4656 3.59932 47.3534 3.55794L47.1872 3.67045C47.3562 3.65242 47.5266 3.65025 47.6961 3.66398V3.66398ZM48.1415 3.0331C48.248 2.96718 48.3544 2.9038 48.4648 2.83917C48.3518 2.89863 48.248 2.96718 48.1415 3.0331ZM47.8052 3.24518C47.8454 3.22062 47.8831 3.18816 47.9247 3.1636C47.8896 3.19204 47.8454 3.21804 47.8052 3.24518ZM47.1807 3.67045C47.0586 3.75835 46.9391 3.84487 46.8197 3.93665L47.1872 3.6613C47.1872 3.6613 47.1833 3.67045 47.1807 3.67045ZM47.7987 3.24897C47.648 3.34851 47.4975 3.452 47.3469 3.55541C47.4949 3.452 47.6455 3.34851 47.7961 3.24897H47.7987ZM48.4622 2.82891V2.83791C48.6063 2.75001 48.7478 2.65958 48.8959 2.57943C48.7478 2.66087 48.6063 2.74489 48.4622 2.82891ZM48.9894 2.52641C49.1647 2.42688 49.3477 2.33643 49.5295 2.24206V2.23291C49.3477 2.32986 49.1712 2.42688 48.9894 2.52641ZM48.9933 4.41762C49.1548 4.30128 49.2644 4.12688 49.2991 3.93145C49.3337 3.73602 49.2907 3.53483 49.179 3.37048C49.1261 3.28865 49.0574 3.21812 48.9768 3.16313C48.8962 3.10814 48.8054 3.06982 48.7097 3.0503C48.614 3.03079 48.5154 3.03049 48.4196 3.04951C48.3238 3.06854 48.2327 3.1065 48.1519 3.16108C47.9901 3.27812 47.8804 3.45308 47.8457 3.64915C47.8111 3.84521 47.8543 4.04705 47.9662 4.21201C48.0194 4.29339 48.0884 4.36343 48.1691 4.41794C48.2499 4.47245 48.3407 4.51036 48.4364 4.5295C48.532 4.54864 48.6305 4.54856 48.7261 4.52934C48.8217 4.51012 48.9126 4.4722 48.9933 4.41762Z" fill="#0065AE"/>
<path fill-rule="evenodd" clip-rule="evenodd" d="M45.0572 9.55752C45.3567 9.76449 45.6956 9.908 46.0531 9.979C46.1756 9.99821 46.2992 10.0098 46.4232 10.0139C46.1618 10.2703 45.9911 10.6044 45.9367 10.9657C45.8824 11.327 45.9474 11.6962 46.1219 12.0176C46.5459 11.8765 46.9072 11.5929 47.1441 11.2155C47.381 10.8381 47.4787 10.3904 47.4204 9.94917C47.7934 9.862 48.1476 9.70834 48.4656 9.49551C48.326 9.92395 48.3519 10.3888 48.5382 10.7992C48.7245 11.2097 49.0579 11.5363 49.4732 11.7151C49.7111 11.2892 49.788 10.7924 49.6901 10.3149C49.5922 9.83746 49.326 9.41066 48.9395 9.11158C49.4416 8.62381 49.7757 7.99025 49.8938 7.3018C49.9364 7.05068 49.9573 6.79636 49.9562 6.54169C50.2574 6.92949 50.5561 7.12339 50.7755 6.892C51.0923 6.55461 50.6379 5.84759 50.0653 5.1922C50.8248 5.79588 51.635 6.25217 51.8051 5.75191C51.9583 5.30852 51.2624 4.84696 50.4834 4.48889C51.4092 4.72287 52.3258 4.80432 52.283 4.27302C52.2427 3.79732 51.4286 3.66944 50.5807 3.66298C51.513 3.49105 52.3738 3.17817 52.122 2.70893C51.896 2.2901 51.1079 2.51499 50.338 2.86531C51.0884 2.33014 51.726 1.70189 51.3871 1.37096C50.9352 1.54935 50.4859 1.74329 50.0496 1.95529C49.9652 2.04319 49.8835 2.13628 49.8017 2.23064L49.9211 2.01856C49.7913 2.08449 49.6536 2.15945 49.5225 2.22796C49.5053 2.51082 49.4096 2.78338 49.246 3.01522C49.529 2.68688 49.8458 2.41547 50.0341 2.56155C50.2445 2.72701 49.912 3.05532 49.5147 3.33712C49.9042 3.15615 50.3029 3.0437 50.4236 3.2557C50.5535 3.49355 50.1159 3.65255 49.6445 3.74046C50.0743 3.74046 50.4899 3.80905 50.508 4.0469C50.5301 4.31836 50.0652 4.27818 49.5991 4.15925C49.9886 4.3441 50.347 4.57549 50.2704 4.80559C50.1821 5.06413 49.7718 4.82761 49.3849 4.52124C49.6732 4.85217 49.9042 5.21152 49.7458 5.38345C49.564 5.57735 49.2784 5.19347 49.0459 4.75525C49.1758 5.17667 49.2498 5.59931 49.0304 5.68721C48.785 5.78416 48.6786 5.32139 48.6409 4.825C48.5942 5.26322 48.4902 5.6718 48.2513 5.66275C47.9916 5.64724 48.0761 5.18174 48.2384 4.71896C48.0216 5.09384 47.7579 5.42232 47.5476 5.31244C47.3126 5.18317 47.5762 4.79532 47.9112 4.45276C47.5593 4.70224 47.1892 4.89097 47.0386 4.70223C46.8685 4.49023 47.2684 4.25237 47.7164 4.07657C47.2931 4.15413 46.8815 4.16704 46.8153 3.93565C46.614 4.08819 46.4102 4.23947 46.2128 4.39847C46.4064 4.37877 46.5991 4.35162 46.7906 4.31705C45.9076 4.66349 45.1208 5.13273 45.4532 5.54898C45.748 5.91739 46.4803 5.54897 47.1711 5.05775C46.5089 5.74546 45.9869 6.51061 46.4517 6.75235C46.8698 6.96822 47.384 6.32061 47.8112 5.57991C47.4904 6.49254 47.3217 7.41175 47.8398 7.44019C48.3007 7.46475 48.5084 6.65547 48.5993 5.79325C48.6655 6.65935 48.8447 7.47368 49.2212 7.51246C49.039 8.14984 48.6228 8.69577 48.0552 9.04199C47.4877 9.38822 46.8101 9.50951 46.157 9.38173C45.5962 9.25875 45.1049 8.92467 44.786 8.4493C44.467 7.97393 44.3451 7.39408 44.4457 6.83124C44.46 6.75358 44.4435 6.67346 44.3997 6.60764C44.3559 6.54183 44.288 6.49551 44.2106 6.47841C44.1708 6.46926 44.1294 6.46922 44.0896 6.47841C44.0498 6.48759 44.0125 6.50578 43.9808 6.53143L43.9029 6.61932C43.8856 6.65029 43.8738 6.68382 43.8678 6.71873C43.7899 7.1663 43.8199 7.62594 43.9553 8.0597C44.0908 8.49346 44.3278 8.88899 44.6469 9.21368C44.2813 9.14842 43.9048 9.22874 43.5982 9.43744C43.2917 9.64613 43.0798 9.96652 43.0083 10.3293C43.3843 10.4843 43.8056 10.4907 44.1863 10.3473C44.5669 10.2039 44.8784 9.92152 45.0572 9.55752V9.55752ZM49.5225 5.88509H49.4758L49.4095 5.65628C49.4407 5.74031 49.4861 5.8127 49.5225 5.88509ZM60.219 0.294148C60.2917 0.243734 60.3631 0.188179 60.4293 0.131301C59.1922 0.00824359 57.946 0.0039021 56.708 0.118361C57.1924 0.527847 57.7989 0.767006 58.4336 0.798786C59.0682 0.830566 59.6957 0.653178 60.219 0.294148ZM63.269 5.12103C62.9607 3.79439 63.0825 2.40472 63.617 1.15131C63.5193 0.976633 63.4175 0.804198 63.3118 0.634203L63.0522 0.568243C62.886 0.527739 62.7197 0.490205 62.5535 0.455733C62.7279 1.20296 62.731 1.97975 62.5626 2.72834C61.6369 2.34054 61.2162 0.799575 61.2162 0.799575C61.1367 1.58651 61.192 2.38116 61.3798 3.14966C62.1713 3.63164 62.8226 4.31124 63.269 5.12103V5.12103ZM69.0015 4.58073C69.2576 4.25392 69.4944 3.91248 69.7105 3.5582C69.5807 3.46771 69.4508 3.3799 69.321 3.29199C68.673 3.76925 67.9131 4.07357 67.1136 4.17614C67.2037 3.52723 67.5327 2.93477 68.0368 2.51373C67.9651 2.47438 67.8928 2.43604 67.82 2.3987C67.1565 2.63066 66.5384 2.97525 65.993 3.41729C65.8229 4.18374 65.4767 4.90052 64.9816 5.51142C66.1662 4.73153 67.5928 4.40127 69.0015 4.58073V4.58073Z" fill="#0065AE"/>
<path fill-rule="evenodd" clip-rule="evenodd" d="M63.5546 7.5721C63.7663 7.56379 63.9712 7.49566 64.1454 7.37564C64.4034 7.18974 64.5785 6.9111 64.6335 6.5988C64.6885 6.28651 64.6192 5.96521 64.4401 5.70298C64.3556 5.5727 64.2458 5.46043 64.1171 5.37303C63.9884 5.28562 63.8435 5.22476 63.6908 5.19393C63.5382 5.16309 63.3808 5.16303 63.2281 5.19361C63.0754 5.22419 62.9303 5.28473 62.8015 5.37192C62.7204 5.43048 62.6467 5.49876 62.582 5.57501C62.0149 4.86085 61.606 4.03523 61.3823 3.15249C60.0552 2.37721 58.5581 1.93611 57.0209 1.86755C57.6817 2.04658 58.2988 2.35778 58.8346 2.7823C59.3704 3.20682 59.8136 3.73578 60.1371 4.33661C59.2074 4.67788 57.8921 3.80262 57.8921 3.80262C58.2096 4.25309 58.5796 4.66445 58.9945 5.02808C60.2062 4.85324 61.4422 5.07706 62.5145 5.66543C62.3411 5.91652 62.2693 6.22356 62.3133 6.52511C61.081 6.36987 59.9243 5.84807 58.9945 5.02808C57.889 5.16482 56.8152 5.48933 55.8198 5.98733C56.4744 5.82262 57.1565 5.79674 57.8218 5.91143C58.487 6.02612 59.1205 6.27884 59.6813 6.65308C59.0321 7.4093 57.4741 7.27875 57.4741 7.27875C58.1578 7.62366 58.8978 7.84471 59.6593 7.93156C60.3855 7.22095 61.3099 6.74478 62.312 6.56519C62.3415 6.73568 62.4056 6.8984 62.5003 7.04348C62.6068 7.20454 62.7512 7.33721 62.9208 7.43024C63.0905 7.52326 63.2804 7.57379 63.4741 7.57731C62.9701 8.92161 62.009 10.0477 60.7578 10.7599C60.5083 11.942 60.4644 13.158 60.6279 14.3549C60.6677 13.6772 60.8483 13.0151 61.158 12.4103C61.4677 11.8056 61.9001 11.2714 62.4276 10.8414C62.6874 11.6081 62.6527 12.4435 62.3302 13.1862C63.1377 12.3619 63.7041 11.3339 63.9688 10.213C63.6037 9.38313 63.4611 8.47326 63.5546 7.5721V7.5721ZM64.4531 5.31259C64.8385 4.58182 65.3685 3.93628 66.0112 3.41491C66.1516 2.82199 66.2192 2.21426 66.2125 1.60513C65.9022 1.47586 65.5879 1.34654 65.2672 1.2302C65.0804 1.63213 64.836 2.00498 64.5414 2.33684C64.2488 1.90271 64.1116 1.38315 64.1519 0.8619C64.0352 0.826759 63.9178 0.793541 63.8 0.762329C63.7337 0.891597 63.6844 1.02077 63.6273 1.15004C64.3837 2.39841 64.676 3.87165 64.4531 5.31259V5.31259ZM65.3049 6.88189C66.051 6.99669 66.7701 7.24443 67.4278 7.61344C68.9983 7.37491 70.477 6.72547 71.7126 5.73139V8.17583L73.8823 7.52302C73.233 6.69101 72.517 5.91278 71.7412 5.19614L71.7061 5.16521V5.70677C71.1135 5.98876 70.4688 6.14577 69.8123 6.16801C69.1559 6.19026 68.5018 6.07723 67.8913 5.83601C68.3717 4.9544 69.9104 4.75414 69.9104 4.75414C69.6117 4.67811 69.308 4.62275 69.0015 4.58861C68.5675 5.19447 68.0175 5.70898 67.3831 6.10253C66.7487 6.49607 66.0424 6.76096 65.3049 6.88189V6.88189Z" fill="#0065AE"/>
<path fill-rule="evenodd" clip-rule="evenodd" d="M62.7191 7.47449C61.7581 7.88931 60.7048 8.04666 59.6638 7.93084C58.6507 8.94163 57.8724 10.1611 57.3838 11.5037C57.7379 10.9317 58.2107 10.4417 58.7706 10.0665C59.3304 9.69126 59.9643 9.43954 60.6299 9.32814C60.6584 10.3468 59.4457 11.3227 59.4457 11.3227C59.906 11.1849 60.3494 10.9964 60.7675 10.7605C61.0029 9.46824 61.6952 8.3026 62.7191 7.47449V7.47449Z" fill="#0065AE"/>
<path fill-rule="evenodd" clip-rule="evenodd" d="M64.0448 7.52038C64.2056 8.4136 64.1831 9.32998 63.9786 10.2143C64.2263 10.774 64.544 11.3003 64.9239 11.7809C64.7447 12.2747 64.5448 12.7583 64.324 13.2314C64.2443 13.1907 64.1602 13.159 64.0734 13.137C62.4685 12.7492 61.2285 15.429 60.3625 18.3673C60.7234 14.9287 60.5482 11.5935 58.7421 11.94C57.132 12.2528 57.084 15.2441 57.48 18.3078C56.4283 14.9972 54.9338 11.9995 53.4393 13.0815C52.3902 13.8416 52.8836 15.7197 53.9132 17.779C52.1357 15.8128 50.3815 14.5693 49.5713 15.84C48.6793 17.2348 50.7178 19.4129 53.1199 21.3197C50.0958 19.7128 46.9848 18.6593 46.7017 20.5195C46.5316 21.6389 47.7184 22.5232 49.4076 23.2109C48.023 23.2651 46.6368 23.154 45.2786 22.88C44.8515 22.7921 44.4334 22.686 44.0231 22.5606C44.742 21.1442 45.1386 19.5876 45.1848 18.0013C45.231 16.415 44.9257 14.8381 44.2906 13.3826C44.7692 13.6196 45.2768 13.7935 45.8006 13.8997C46.7842 14.082 47.7942 14.069 48.7728 13.8615C49.7513 13.654 50.679 13.2562 51.5026 12.6906C52.3262 12.1251 53.0294 11.4031 53.5719 10.5662C54.1144 9.72927 54.4854 8.79384 54.6637 7.81372C54.7068 8.14598 54.8163 8.46627 54.9859 8.75562C55.1555 9.04497 55.3817 9.29742 55.6511 9.49822C55.9204 9.69901 56.2275 9.84402 56.5541 9.92459C56.8808 10.0052 57.2203 10.0197 57.5527 9.96735C57.4989 9.26657 57.1766 8.61325 56.6523 8.14258C56.1281 7.6719 55.4421 7.41983 54.7364 7.4388C54.7585 7.31987 54.7766 7.19836 54.7935 7.08202C54.9903 7.2011 55.209 7.27987 55.4368 7.3135C55.6646 7.34714 55.8968 7.3351 56.1198 7.278C56.3428 7.2209 56.552 7.11989 56.7352 6.98102C56.9184 6.84216 57.0719 6.6681 57.1866 6.46929C56.8673 6.19444 56.4652 6.03353 56.0437 6.01199C55.6222 5.99045 55.2056 6.10961 54.8598 6.35046C54.9315 4.37114 54.4005 2.41643 53.3367 0.742798C53.1393 0.795798 52.9471 0.855274 52.7459 0.917322C54.0317 2.89949 54.5174 5.29233 54.1054 7.616C53.9583 8.53353 53.6269 9.41208 53.1312 10.1993C52.6354 10.9865 51.9854 11.6662 51.22 12.1978C50.4546 12.7294 49.5894 13.1021 48.6762 13.2934C47.7629 13.4848 46.8202 13.4909 45.9045 13.3116C45.1577 13.1606 44.4503 12.8573 43.827 12.4208C43.7167 12.2204 43.6452 12.112 43.6452 12.112C43.6009 12.1327 43.5576 12.1556 43.5154 12.1805C42.6997 11.5267 42.0725 10.6694 41.6976 9.69594C41.5705 9.90755 41.4501 10.1231 41.3366 10.3423C41.7205 11.155 42.2691 11.8799 42.948 12.4713C41.5714 13.1753 40.3847 14.198 39.4876 15.4535C39.4214 15.7663 39.3656 16.0818 39.3149 16.3946C39.8057 16.685 40.1916 17.1225 40.4173 17.6445C41.0956 16.1241 42.035 14.7331 43.1933 13.5339C42.3467 15.2143 41.6238 16.9536 41.0302 18.7382C42.0285 17.7545 43.3235 17.1241 44.7164 16.9439C43.1406 17.4358 41.7504 18.3896 40.7276 19.6806C40.59 20.1589 40.4602 20.6461 40.3511 21.1334C41.2424 19.888 42.5133 18.962 43.9751 18.4925C42.3246 19.3022 40.977 20.6157 40.1291 22.2413C39.9505 23.2218 39.8946 24.2205 39.9629 25.2146C40.5928 27.2115 41.5416 29.0944 42.7727 30.7912C43.7859 31.8209 44.9033 32.7436 46.107 33.5446C42.8324 30.4719 44.597 24.9792 45.1709 23.4616C47.019 23.8354 48.9152 23.9126 50.7878 23.6904C51.215 23.8197 51.654 23.949 52.1006 24.0589C48.7247 23.852 45.4786 24.1881 45.972 26.0186C46.4083 27.6473 49.3285 27.5594 52.2798 27.01C49.1428 28.2419 46.346 29.9108 47.5224 31.3857C48.5715 32.7017 51.1735 31.3857 53.6249 29.6484C51.2761 32.0954 49.4181 34.8062 51.0697 35.6684C52.546 36.4375 54.3754 34.1404 55.8985 31.5072C54.7559 34.7389 54.156 38.016 55.9984 38.1155C57.641 38.2034 58.3785 35.3207 58.6992 32.2609C58.9589 35.7175 59.7289 38.9828 61.4337 38.2938C62.9568 37.6876 62.4725 34.7273 61.5311 31.7761C62.1921 33.0994 63.0089 34.3396 63.9643 35.4707C63.8643 36.3393 63.7826 37.2144 63.7254 38.0844C63.9332 38.0275 64.137 37.9655 64.3409 37.9034C64.3876 37.2726 64.4448 36.634 64.5136 35.9993C64.733 36.191 64.985 36.3426 65.2576 36.4466C65.0204 36.6741 64.8594 36.9688 64.7966 37.2907C64.7966 37.2907 66.2028 37.9164 67.0481 36.1493C66.8694 36.1018 66.6862 36.0736 66.5015 36.0652C66.6816 35.7691 66.782 35.4318 66.7929 35.0858C66.8038 34.7398 66.7249 34.3969 66.5638 34.0901C66.566 34.0208 66.5535 33.9518 66.5271 33.8876C66.5007 33.8235 66.461 33.7657 66.4106 33.7178C66.0552 32.9833 65.6239 32.2874 65.1238 31.6417C65.1525 31.4691 65.1828 31.2967 65.2147 31.1246C67.4688 32.712 69.5787 33.613 70.0903 32.1277C70.5136 30.8997 69.1048 29.6432 67.1571 28.5392C67.3419 28.424 67.5053 28.278 67.6401 28.1075C68.717 28.3454 69.8338 28.3402 70.9083 28.092C71.0213 28.3958 71.159 28.7267 71.3264 29.077C71.0433 29.4536 70.8845 29.9085 70.8722 30.3788C70.8599 30.8491 70.9945 31.3116 71.2576 31.7024C71.4275 31.9636 71.642 32.1933 71.8913 32.3811C71.8913 32.3966 71.8756 32.4096 71.8692 32.4252C71.8331 32.5491 71.8475 32.6821 71.9093 32.7955C71.971 32.9089 72.0751 32.9937 72.199 33.0314C72.2451 33.044 72.2926 33.0506 72.3404 33.0508C72.4508 32.9409 72.5534 32.8284 72.6612 32.716C72.6897 32.6875 72.7144 32.6565 72.7391 32.6281C72.7637 32.5996 72.7833 32.5842 72.8053 32.5596C72.9715 32.3812 73.1347 32.1998 73.2949 32.0154C73.4247 31.8654 73.5545 31.7115 73.6753 31.559C73.77 31.444 73.8674 31.3303 73.9583 31.2126C73.6947 30.7863 73.5278 30.3077 73.4693 29.8104C73.4107 29.3132 73.462 28.8092 73.6195 28.3338C73.3144 28.2412 72.9923 28.2189 72.6773 28.2686C72.3624 28.3183 72.0629 28.4388 71.8016 28.6208C71.7886 28.6299 71.7796 28.6427 71.7666 28.6517C71.6316 28.3544 71.5185 28.0761 71.4277 27.8167C71.5631 27.7031 71.6676 27.5573 71.7314 27.3928C71.7952 27.2283 71.8162 27.0503 71.7925 26.8756C71.6627 25.3502 69.2684 24.8319 66.5742 24.7376C66.5897 24.669 66.6092 24.6083 66.6248 24.5411C69.5761 23.8948 72.0406 22.8438 71.2252 21.3249C70.4279 19.8396 67.6233 20.6345 64.8927 21.8806C67.6467 19.9209 69.9669 17.6148 68.488 16.4604C67.1688 15.4263 64.9525 17.3357 62.9815 19.6328C64.3695 17.2284 65.4056 14.7309 64.7772 13.6437C64.9899 13.2048 65.1847 12.7577 65.3614 12.3032C65.9545 12.9584 66.6286 13.536 67.3675 14.0224C66.8799 13.5346 66.4955 12.9544 66.2373 12.316C65.979 11.6776 65.8521 10.9941 65.8639 10.306C66.8468 10.4973 67.5597 11.9218 67.5597 11.9218C67.5237 11.5922 67.4659 11.2654 67.3869 10.9433C66.6101 10.6547 65.9073 10.198 65.3293 9.60599C64.7513 9.01403 64.3126 8.30169 64.0448 7.52038V7.52038ZM41.6885 27.0488C41.8037 27.2075 41.9531 27.3386 42.1257 27.4326C42.2983 27.5265 42.4898 27.5809 42.6861 27.592C42.8825 27.603 43.0789 27.5704 43.2609 27.4963C43.443 27.4223 43.6063 27.3086 43.7387 27.1639C43.7387 27.1639 42.4922 28.6143 41.6755 27.0488C41.3544 27.0325 41.0374 26.9703 40.7341 26.864C41.4484 26.9421 42.1705 26.8244 42.8225 26.5237C43.4744 26.2229 44.0314 25.7506 44.4334 25.1576C44.2115 25.7054 43.8333 26.1765 43.3455 26.5126C42.8577 26.8487 42.2816 27.0351 41.6885 27.0488V27.0488ZM41.4094 26.0263C42.3121 25.157 43.0918 24.1693 43.727 23.0906C44.1882 23.2359 44.6567 23.3571 45.1306 23.4539C43.2622 27.1251 41.4094 26.029 41.4094 26.029V26.0263ZM64.6382 31.0031C64.4035 30.7125 64.1628 30.4268 63.9163 30.1461C64.176 30.349 64.4278 30.5469 64.6849 30.7369L64.6382 31.0045V31.0031ZM66.2145 27.8336C66.1683 27.8736 66.1248 27.9168 66.0846 27.9628C66.0093 27.9253 65.9366 27.8879 65.8587 27.853C65.8587 27.8181 65.8743 27.7844 65.8808 27.7534C65.9938 27.7883 66.1042 27.8128 66.2145 27.8348V27.8336ZM65.9886 24.6703C65.9886 24.6858 65.9795 24.7052 65.9756 24.7207H65.7523L65.9886 24.6703ZM63.8034 20.8103C64.5538 21.3946 63.3761 22.5671 61.9855 23.5612C63.3735 22.9265 64.7927 22.527 65.2004 23.2793C65.6562 24.1235 64.1046 24.6897 62.4218 25.0012C63.9513 25.0103 65.4198 25.2416 65.4899 26.0948C65.5691 27.0514 63.9175 26.9105 62.2439 26.4826C63.6449 27.129 64.9031 27.9575 64.6265 28.7616C64.3188 29.6664 62.8529 28.8393 61.487 27.7521C62.514 28.9311 63.3397 30.2082 62.7645 30.8158C62.1153 31.5009 61.1039 30.1409 60.2807 28.5832C60.7546 30.0802 61.0026 31.5836 60.2301 31.8939C59.3666 32.2403 58.9744 30.5844 58.842 28.8302C58.6784 30.3814 58.3057 31.8472 57.4696 31.8033C56.5334 31.7529 56.8385 30.0931 57.4189 28.4488C56.6463 29.7841 55.7167 30.9527 54.9662 30.5624C54.1248 30.1241 55.0701 28.7526 56.2646 27.5052C55.0181 28.3894 53.6989 29.0564 53.1653 28.3868C52.5693 27.6396 53.9846 26.789 55.5804 26.1647C54.0794 26.4426 52.6005 26.4891 52.3771 25.6618C52.1291 24.7336 53.7717 24.5642 55.4934 24.6677C54.0015 24.2889 52.62 23.7086 52.7498 22.867C52.8914 21.9234 54.4702 22.4572 56.0063 23.2729C54.7884 22.3072 53.7522 21.2046 54.2066 20.4911C54.6182 19.8447 55.505 20.4782 56.4139 21.4787C55.8946 20.4342 55.6414 19.4777 56.1725 19.0938C56.9321 18.5469 57.6916 20.0658 58.2227 21.7476C58.0214 20.1964 58.0474 18.6723 58.8628 18.5159C59.7795 18.3414 59.8704 20.0347 59.686 21.7798C60.1223 20.2893 60.7533 18.9256 61.5661 19.1234C62.475 19.3483 61.883 20.9203 61.0169 22.4211C62.0102 21.2551 63.1334 20.2895 63.8034 20.8117V20.8103ZM70.4253 7.75297C70.3414 7.81413 70.2846 7.90534 70.267 8.00734C70.2493 8.10934 70.2721 8.21413 70.3305 8.29974C70.3579 8.34232 70.3936 8.37901 70.4356 8.40752C70.4776 8.43603 70.5249 8.45585 70.5747 8.46575C70.6245 8.47564 70.6758 8.47541 70.7256 8.46511C70.7753 8.45482 70.8225 8.43463 70.8642 8.40578C70.948 8.34527 71.005 8.25481 71.0232 8.15331C71.0413 8.0518 71.0193 7.94715 70.9616 7.86154C70.9045 7.77689 70.8162 7.71807 70.7158 7.69774C70.6155 7.67742 70.5111 7.69725 70.4253 7.75297V7.75297Z" fill="#0065AE"/>
<path fill-rule="evenodd" clip-rule="evenodd" d="M55.8987 3.26833C56.0111 3.18821 56.0876 3.06755 56.1119 2.93206C56.1362 2.79657 56.1063 2.65694 56.0286 2.54309C55.9918 2.48652 55.9439 2.4379 55.8879 2.39997C55.8319 2.36204 55.7688 2.33569 55.7024 2.32233C55.636 2.30897 55.5677 2.30888 55.5013 2.32217C55.4349 2.33546 55.3718 2.36178 55.3158 2.39965C55.2037 2.48065 55.1276 2.60177 55.1034 2.7375C55.0792 2.87322 55.1087 3.01296 55.1859 3.12742C55.2228 3.18392 55.2708 3.23244 55.3269 3.27022C55.3829 3.308 55.446 3.33426 55.5125 3.34739C55.5789 3.36052 55.6473 3.36034 55.7137 3.34675C55.78 3.33317 55.8429 3.30649 55.8987 3.26833V3.26833ZM73.3911 8.21545C73.279 8.29578 73.2028 8.41648 73.1785 8.55188C73.1543 8.68727 73.184 8.82674 73.2613 8.94069C73.2978 8.99768 73.3455 9.04668 73.4014 9.08492C73.4574 9.12316 73.5206 9.14979 73.5871 9.16319C73.6537 9.17658 73.7222 9.17645 73.7887 9.16287C73.8552 9.14929 73.9183 9.12253 73.9742 9.08413C74.0866 9.00402 74.1631 8.88335 74.1874 8.74786C74.2116 8.61237 74.1817 8.47274 74.104 8.35889C74.0669 8.30259 74.019 8.25413 73.9629 8.2164C73.9069 8.17867 73.8439 8.15242 73.7776 8.13908C73.7114 8.12573 73.6431 8.12566 73.5767 8.13876C73.5104 8.15186 73.4473 8.17793 73.3911 8.21545V8.21545ZM53.0513 9.27933C53.1045 8.32016 52.3319 8.39513 52.2605 8.40418C52.2279 8.27273 52.1594 8.15291 52.0624 8.05797C51.9654 7.96303 51.8439 7.89666 51.7113 7.8664C51.1508 8.2115 50.6062 8.58162 50.0792 8.97556C50.0438 9.16025 50.0798 9.35142 50.18 9.51082C50.2801 9.67021 50.4371 9.78596 50.6193 9.83509C50.586 9.93486 50.5729 10.0403 50.5811 10.1452C50.5892 10.25 50.6183 10.3521 50.6667 10.4456C50.7151 10.5391 50.7818 10.622 50.8629 10.6894C50.9439 10.7568 51.0377 10.8074 51.1387 10.8382C51.658 10.9907 51.6944 10.7814 51.8515 10.5603C51.9489 10.6159 52.0583 10.6475 52.1704 10.6523C52.2826 10.6571 52.3943 10.6349 52.4961 10.5878C52.5978 10.5407 52.6868 10.4698 52.7554 10.3814C52.824 10.2929 52.8702 10.1895 52.8902 10.0795C52.928 9.93713 52.9123 9.78594 52.8461 9.65425C52.9596 9.55961 53.033 9.42561 53.0513 9.27933V9.27933ZM51.8827 9.68518C51.8297 9.72158 51.7699 9.74699 51.7069 9.75982C51.6438 9.77265 51.5789 9.77262 51.5158 9.75982C51.4528 9.74702 51.3929 9.72171 51.34 9.68534C51.287 9.64897 51.242 9.60234 51.2075 9.54821C51.134 9.44007 51.1054 9.3078 51.1276 9.17912C51.1499 9.05044 51.2213 8.93527 51.327 8.85785C51.38 8.82163 51.4398 8.79641 51.5028 8.78368C51.5658 8.77095 51.6307 8.77105 51.6937 8.78384C51.7567 8.79663 51.8165 8.82189 51.8695 8.85816C51.9225 8.89443 51.9676 8.94098 52.0022 8.99497C52.0776 9.10249 52.1074 9.23527 52.0851 9.36454C52.0627 9.4938 51.9899 9.60901 51.8827 9.68518V9.68518Z" fill="#0065AE"/>
</svg>
